<?xml version="1.0" encoding="iso-8859-1"?>
<!-- Generator: Adobe Illustrator 19.0.0, SVG Export Plug-In . SVG Version: 6.00 Build 0)  -->
<svg version="1.1" id="&#x56FE;&#x5C42;_1" xmlns="http://www.w3.org/2000/svg" xmlns:xlink="http://www.w3.org/1999/xlink" x="0px"
	 y="0px" viewBox="7 -8 16 16" style="enable-background:new 7 -8 16 16;" xml:space="preserve">
<title>164</title>
<g>
	<g>
		<path style="fill:#434343;" d="M7.959-7.192c0.034,0.034,0.055,0.01,0.083-0.018C8.069-7.237,8.094-7.258,8.06-7.292
			c0,0-0.489-0.487-0.606-0.604L7.353-7.795L7.959-7.192L7.959-7.192z"/>
		<path style="fill:#434343;" d="M7.18-7.698L7.22-7.737c0,0-0.017-0.047,0.008-0.07C7.253-7.83,7.296-7.816,7.296-7.816
			l0.138-0.133c0,0-0.01-0.069,0.003-0.082c0.013-0.013,0.156-0.082,0.17-0.096L7.577-8.156c0,0-0.2,0.024-0.222,0.046
			C7.343-8.098,7.247-8.002,7.179-7.934c0,0,0.017,0.048-0.005,0.071C7.152-7.841,7.101-7.857,7.101-7.857
			c-0.024,0.024-0.04,0.04-0.04,0.04C7.044-7.8,7.054-7.776,7.075-7.756l0.044,0.044C7.14-7.691,7.164-7.681,7.18-7.698L7.18-7.698z
			"/>
	</g>
</g>
</svg>
