<?xml version="1.0" encoding="iso-8859-1"?>
<!-- Generator: Adobe Illustrator 19.0.0, SVG Export Plug-In . SVG Version: 6.00 Build 0)  -->
<svg version="1.1" id="&#x56FE;&#x5C42;_1" xmlns="http://www.w3.org/2000/svg" xmlns:xlink="http://www.w3.org/1999/xlink" x="0px"
	 y="0px" viewBox="0 0 1 1" style="enable-background:new 0 0 1 1;" xml:space="preserve">
<title>868</title>
<g id="XMLID_2_">
	<path id="XMLID_3_" style="fill:#434343;" d="M0.981,0.155l-0.14-0.142c-0.027-0.027-0.072-0.026-0.1,0.002
		c-0.003,0.003-0.005,0.006-0.006,0.01C0.7,0.167,0.701,0.217,0.707,0.236L0.315,0.633l-0.12-0.121L0.052,0.657
		c-0.047,0.047-0.086,0.22-0.005,0.303c0.081,0.082,0.252,0.042,0.298-0.005l0.144-0.145L0.371,0.69l0.393-0.398
		c0.021,0.005,0.072,0.004,0.205-0.03c0.004-0.001,0.007-0.003,0.01-0.006C1.007,0.228,1.008,0.182,0.981,0.155L0.981,0.155z
		 M0.945,0.215c-0.069,0.02-0.149,0.037-0.167,0.034L0.751,0.221C0.747,0.204,0.764,0.122,0.784,0.052
		c0.011-0.008,0.026-0.009,0.035,0L0.945,0.18C0.953,0.189,0.953,0.203,0.945,0.215L0.945,0.215z"/>
</g>
</svg>
