<?xml version="1.0" encoding="iso-8859-1"?>
<!-- Generator: Adobe Illustrator 19.0.0, SVG Export Plug-In . SVG Version: 6.00 Build 0)  -->
<svg version="1.1" id="&#x56FE;&#x5C42;_1" xmlns="http://www.w3.org/2000/svg" xmlns:xlink="http://www.w3.org/1999/xlink" x="0px"
	 y="0px" viewBox="8 -8 17 16" style="enable-background:new 8 -8 17 16;" xml:space="preserve">
<title>868</title>
<g>
	<path style="fill:#434343;" d="M8.981-7.826l-0.14-0.142c-0.027-0.027-0.072-0.026-0.1,0.002c-0.003,0.003-0.005,0.006-0.006,0.01
		C8.7-7.813,8.701-7.764,8.707-7.744L8.315-7.347l-0.12-0.121L8.052-7.324c-0.047,0.047-0.086,0.22-0.005,0.303
		c0.081,0.082,0.252,0.042,0.298-0.005l0.144-0.145L8.371-7.291l0.393-0.398c0.021,0.005,0.072,0.004,0.205-0.03
		c0.004-0.001,0.007-0.003,0.01-0.006C9.007-7.753,9.008-7.799,8.981-7.826L8.981-7.826z M8.945-7.766
		c-0.069,0.02-0.149,0.037-0.167,0.034L8.751-7.759C8.747-7.776,8.764-7.858,8.784-7.929c0.011-0.008,0.026-0.009,0.035,0
		l0.126,0.128C8.953-7.792,8.953-7.777,8.945-7.766L8.945-7.766z"/>
</g>
</svg>
