<?xml version="1.0" encoding="iso-8859-1"?>
<!-- Generator: Adobe Illustrator 19.0.0, SVG Export Plug-In . SVG Version: 6.00 Build 0)  -->
<svg version="1.1" id="&#x56FE;&#x5C42;_1" xmlns="http://www.w3.org/2000/svg" xmlns:xlink="http://www.w3.org/1999/xlink" x="0px"
	 y="0px" viewBox="0 0 1 1" style="enable-background:new 0 0 1 1;" xml:space="preserve">
<path id="XMLID_2_" style="fill:#040000;" d="M0.205,1h0.596V0.96H0.755V0.942H0.739l0-0.003C0.74,0.938,0.74,0.936,0.74,0.935
	c0-0.019-0.068-0.035-0.165-0.042V0.388l0.02-0.022v-0.01L0.543,0.345V0.242l0.008-0.013L0.543,0.223V0.208L0.517,0.194H0.516
	L0.515,0.147c0,0,0.004-0.006,0.004-0.01C0.518,0.132,0.503,0.128,0.503,0.128V0.085L0.478,0.051L0.452,0.083v0.038H0.446
	L0.446,0.019L0.436,0L0.427,0.02L0.424,0.194H0.423L0.4,0.225l0.007,0.008v0.118L0.383,0.37H0.371v0.01L0.36,0.388l0.011,0.003
	v0.502C0.275,0.9,0.207,0.916,0.207,0.935c0,0.001,0,0.002,0,0.003L0.205,1z M0.529,0.436h0.019V0.49H0.529V0.436z M0.529,0.555
	h0.019v0.054H0.529V0.555z M0.529,0.675h0.019v0.054H0.529V0.675z M0.529,0.795h0.019v0.054H0.529V0.795z M0.472,0.436h0.019V0.49
	H0.472V0.436z M0.472,0.555h0.019v0.054H0.472V0.555z M0.472,0.675h0.019v0.054H0.472V0.675z M0.472,0.795h0.019v0.054H0.472V0.795z
	"/>
</svg>
