<?xml version="1.0" encoding="iso-8859-1"?>
<!-- Generator: Adobe Illustrator 19.0.0, SVG Export Plug-In . SVG Version: 6.00 Build 0)  -->
<svg version="1.1" id="Capa_1" xmlns="http://www.w3.org/2000/svg" xmlns:xlink="http://www.w3.org/1999/xlink" x="0px" y="0px"
	 viewBox="-298 387.195 14.996 19.805" style="enable-background:new -298 387.195 14.996 19.805;" xml:space="preserve">
<path d="M-298,388.194h0.596v-0.04h-0.047v-0.018h-0.016l0-0.003c0.001-0.001,0.001-0.003,0.001-0.004
	c0-0.019-0.068-0.035-0.165-0.042v-0.504l0.02-0.022v-0.01l-0.053-0.011v-0.103l0.008-0.013l-0.008-0.006v-0.015l-0.026-0.014
	h-0.001l-0.002-0.047c0,0,0.004-0.006,0.004-0.01c-0.001-0.004-0.015-0.009-0.015-0.009v-0.043l-0.026-0.033l-0.025,0.032v0.038
	h-0.006l-0.001-0.102l-0.009-0.018l-0.009,0.02l-0.003,0.174h-0.001l-0.023,0.031l0.007,0.008v0.118l-0.024,0.019h-0.012v0.01
	l-0.011,0.009l0.011,0.003v0.502c-0.096,0.007-0.164,0.023-0.164,0.042c0,0.001,0,0.002,0,0.003L-298,388.194z M-297.676,387.63
	h0.019v0.054h-0.019V387.63z M-297.676,387.75h0.019v0.054h-0.019V387.75z M-297.676,387.87h0.019v0.054h-0.019V387.87z
	 M-297.676,387.989h0.019v0.054h-0.019V387.989z M-297.733,387.63h0.019v0.054h-0.019V387.63z M-297.733,387.75h0.019v0.054h-0.019
	V387.75z M-297.733,387.87h0.019v0.054h-0.019V387.87z M-297.733,387.989h0.019v0.054h-0.019V387.989z"/>
</svg>
