<?xml version="1.0" encoding="utf-8"?>
<!-- Generator: Adobe Illustrator 16.0.2, SVG Export Plug-In . SVG Version: 6.00 Build 0)  -->
<!DOCTYPE svg PUBLIC "-//W3C//DTD SVG 1.1//EN" "http://www.w3.org/Graphics/SVG/1.1/DTD/svg11.dtd">
<svg version="1.1" id="Layer_1" xmlns="http://www.w3.org/2000/svg" xmlns:xlink="http://www.w3.org/1999/xlink" x="0px" y="0px"
	 width="512px" height="512px" viewBox="0 0 512 512" enable-background="new 0 0 512 512" xml:space="preserve">
<path d="M304.063,170.031c0-26.5-21.5-48-48-48s-48,21.5-48,48c0,19.656,11.844,36.5,28.75,43.938
	c-12.031,107.156-55.188,208.813-124.75,292.063c45.625-21.344,94.813-32,144-32s98.375,10.656,144,32
	c-69.563-83.25-112.719-184.906-124.75-292.063C292.219,206.531,304.063,189.688,304.063,170.031z M320.063,447.625
	c-21.156-3.719-42.625-5.625-64-5.625s-42.844,1.906-64,5.625c28.938-49.5,50.563-103.094,64-158.813
	C269.531,344.5,291.125,398.125,320.063,447.625z M151.875,73.844l33.938,33.938c-34.281,34.313-34.281,90.156,0,124.5
	l-33.938,33.938C98.875,213.156,98.875,126.875,151.875,73.844z M117.938,300.125L84,334.063
	C40.188,290.25,16.063,232,16.063,170.031S40.188,49.781,84,5.969l33.938,33.938c-34.75,34.75-53.875,80.969-53.875,130.125
	C64.063,219.156,83.188,265.375,117.938,300.125z M326.281,232.281c16.625-16.625,25.781-38.75,25.781-62.25
	s-9.156-45.625-25.781-62.25l33.938-33.938c25.688,25.688,39.844,59.844,39.844,96.188c0,36.313-14.156,70.5-39.844,96.188
	L326.281,232.281z M496.063,170.031c0,61.969-24.125,120.219-67.969,164.031l-33.938-33.938
	c34.75-34.75,53.906-80.969,53.906-130.094c0-49.156-19.156-95.375-53.906-130.125l33.938-33.938
	C471.938,49.781,496.063,108.031,496.063,170.031z"/>
</svg>
